<?xml version="1.0" standalone="no"?>
<!DOCTYPE svg PUBLIC "-//W3C//DTD SVG 20010904//EN"
 "http://www.w3.org/TR/2001/REC-SVG-20010904/DTD/svg10.dtd">
<svg version="1.0" xmlns="http://www.w3.org/2000/svg"
 width="260.000000pt" height="260.000000pt" viewBox="0 0 260.000000 260.000000"
 preserveAspectRatio="xMidYMid meet">

<g transform="translate(0.000000,260.000000) scale(0.100000,-0.100000)"
fill="#000000" stroke="none">
<path d="M1208 2304 c-35 -60 -102 -175 -148 -256 l-85 -148 -317 0 c-175 0
-318 -3 -318 -6 0 -3 68 -122 150 -265 83 -143 153 -266 156 -274 4 -8 -72
-150 -170 -319 -97 -168 -179 -312 -182 -320 -6 -14 33 -16 363 -16 l370 0
144 -250 c79 -138 148 -252 153 -253 6 -1 75 112 155 250 l146 253 318 0 c174
0 317 2 317 6 0 3 -70 127 -156 275 -96 167 -154 276 -150 285 3 9 46 84 94
168 164 281 262 453 262 459 0 4 -166 7 -369 7 l-369 0 -50 88 c-148 259 -235
408 -242 416 -4 4 -37 -41 -72 -100z m195 -195 l117 -204 -241 -3 c-133 -1
-244 -1 -246 2 -8 7 232 415 242 412 6 -1 63 -95 128 -207z m-463 -264 c0 -11
-254 -445 -261 -445 -7 0 -259 432 -259 444 0 3 117 6 260 6 143 0 260 -2 260
-5z m783 -290 c97 -168 166 -297 163 -307 -2 -10 -66 -126 -143 -258 l-138
-240 -280 1 -280 0 -165 287 c-90 158 -165 296 -165 307 0 11 63 129 140 262
l140 243 280 -3 280 -2 168 -290z m510 282 c-4 -7 -75 -129 -157 -270 -82
-141 -152 -257 -155 -257 -7 0 -311 521 -311 533 0 4 142 7 315 7 259 0 315
-2 308 -13z m-1394 -812 c84 -146 151 -268 149 -271 -3 -2 -144 -3 -315 -2
l-309 3 154 268 c85 147 157 267 161 267 4 0 76 -119 160 -265z m1215 -44 c69
-120 126 -222 126 -225 0 -3 -117 -6 -260 -6 -143 0 -260 2 -260 5 0 11 254
445 260 445 4 0 64 -99 134 -219z m-486 -290 c-16 -42 -235 -410 -243 -407 -8
2 -245 401 -245 412 0 2 111 4 246 4 135 0 244 -4 242 -9z"/>
</g>
</svg>
